<svg width="86" height="29" viewBox="0 0 86 29" fill="none" xmlns="http://www.w3.org/2000/svg">
<path d="M16.3877 24.2939V28H0.0546875V25.3633L10.4697 10.3926H0.0400391V6.67188H16.1973V9.23535L5.84082 24.2939H16.3877Z" fill="#171724"/>
<path d="M35.75 21.5107H25.7305C25.8965 22.4971 26.3066 23.2832 26.9609 23.8691C27.6152 24.4453 28.4551 24.7334 29.4805 24.7334C30.2422 24.7334 30.9453 24.5918 31.5898 24.3086C32.2441 24.0156 32.8008 23.5811 33.2598 23.0049L35.3838 25.4512C34.8271 26.252 34.0117 26.9258 32.9375 27.4727C31.873 28.0195 30.623 28.293 29.1875 28.293C27.5664 28.293 26.1553 27.9512 24.9541 27.2676C23.7627 26.584 22.8447 25.6562 22.2002 24.4844C21.5654 23.3125 21.248 22.0186 21.248 20.6025V20.0459C21.248 18.4639 21.5459 17.0527 22.1416 15.8125C22.7373 14.5723 23.5967 13.6055 24.7197 12.9121C25.8428 12.209 27.1709 11.8574 28.7041 11.8574C30.1982 11.8574 31.4727 12.1748 32.5273 12.8096C33.582 13.4443 34.3828 14.3477 34.9297 15.5195C35.4766 16.6816 35.75 18.0537 35.75 19.6357V21.5107ZM31.4141 18.2002C31.3945 17.3408 31.1553 16.6621 30.6963 16.1641C30.2471 15.666 29.5732 15.417 28.6748 15.417C27.835 15.417 27.1758 15.6953 26.6973 16.252C26.2285 16.8086 25.9209 17.5752 25.7744 18.5518H31.4141V18.2002Z" fill="#171724"/>
<path d="M49.8096 11.8574C51.4014 11.8574 52.6318 12.3359 53.501 13.293C54.3701 14.2402 54.8047 15.793 54.8047 17.9512V28H50.3809V17.9365C50.3809 16.999 50.1807 16.3496 49.7803 15.9883C49.3799 15.6172 48.7598 15.4316 47.9199 15.4316C47.3438 15.4316 46.8408 15.5537 46.4111 15.7979C45.9912 16.042 45.6494 16.3887 45.3857 16.8379V28H40.9619V12.1504H45.1074L45.2539 13.9814C45.8105 13.2881 46.4746 12.7607 47.2461 12.3994C48.0176 12.0381 48.8721 11.8574 49.8096 11.8574Z" fill="#171724"/>
<path d="M61.1299 28V12.1504H65.5684V28H61.1299Z" fill="#171724"/>
<path d="M80.6533 12.1504H85.3408L80.917 19.8848L85.5312 28H80.8438L78.1045 23.1221L75.3799 28H70.6631L75.2773 19.8848L70.8682 12.1504H75.585L78.0898 16.7354L80.6533 12.1504Z" fill="#171724"/>
<circle cx="63.5" cy="4.5" r="4.5" fill="#FC5811"/>
</svg>
